# xmcd
# 
# Track frame offsets:
#     150
#     5064
#     24767
#     41228
#     66058
#     85390
#     106617
#     131605
#     148722
#     165366
#     187340
#     208439
# 
# Disc length: 2998
# 
# Revision: 0
# Processed by: cddbd v1.5.2PL0 Copyright (c) Steve Scherf et al.
# Submitted via: fre:ac v1.0.17
# 
DISCID=a80bb40c
DTITLE=RURUTIA - ミーム
DYEAR=2005
DGENRE=JPop
TTITLE0=Dancing Meme
TTITLE1=tone
TTITLE2=リラが散っても
TTITLE3=プライマリー (album ver.)
TTITLE4=シグナル
TTITLE5=スカーレット
TTITLE6=セレナイト
TTITLE7=ヒースの楽園
TTITLE8=青い薔薇
TTITLE9=蝶ノ森
TTITLE10=コバルトの星
TTITLE11=Sleeping Meme
EXTD=
EXTT0=
EXTT1=
EXTT2=
EXTT3=
EXTT4=
EXTT5=
EXTT6=
EXTT7=
EXTT8=
EXTT9=
EXTT10=
EXTT11=
PLAYORDER=
